<?xml version="1.0" standalone="no"?>
<!DOCTYPE svg PUBLIC "-//W3C//DTD SVG 20010904//EN"
 "http://www.w3.org/TR/2001/REC-SVG-20010904/DTD/svg10.dtd">
<svg version="1.0" xmlns="http://www.w3.org/2000/svg"
 width="512.000000pt" height="512.000000pt" viewBox="0 0 512.000000 512.000000"
 preserveAspectRatio="xMidYMid meet">
<metadata>
Created by potrace 1.11, written by Peter Selinger 2001-2013
</metadata>
<g transform="translate(0.000000,512.000000) scale(0.100000,-0.100000)"
fill="#000000" stroke="none">
<path d="M320 2560 l0 -2240 2240 0 2240 0 0 2240 0 2240 -2240 0 -2240 0 0
-2240z m4030 0 l0 -1790 -1787 2 -1788 3 -3 1788 -2 1787 1790 0 1790 0 0
-1790z"/>
<path d="M880 2560 l0 -1680 1680 0 1680 0 2 1680 3 1680 -1682 0 -1683 0 0
-1680z m910 1166 c0 -23 -4 -25 -52 -28 l-53 -3 0 -405 0 -405 184 -3 c203 -3
201 -3 201 59 0 39 14 59 42 59 16 0 18 -10 18 -90 l0 -90 -310 0 c-279 0
-311 2 -317 16 -9 24 23 44 69 44 l38 0 0 410 0 410 -49 0 c-51 0 -67 10 -57
35 4 12 32 15 146 15 l140 0 0 -24z m1810 -81 c0 -86 -2 -95 -19 -95 -29 0
-40 20 -43 80 l-3 55 -207 3 -208 2 0 -185 0 -185 180 0 180 0 0 -30 0 -30
-180 0 -180 0 0 -190 0 -190 210 0 209 0 3 63 c3 59 4 62 31 65 l27 3 0 -95 0
-96 -331 0 -330 0 3 23 c3 19 11 23 53 27 l50 5 0 405 0 405 -50 5 c-42 4 -50
8 -53 28 l-3 22 330 0 331 0 0 -95z m-1675 -1435 c58 -17 122 -69 145 -116 22
-44 27 -135 11 -191 -21 -73 -104 -143 -197 -167 l-43 -11 97 -121 c53 -67
108 -136 122 -154 62 -79 72 -88 108 -97 27 -6 38 -14 40 -31 3 -20 -1 -22
-52 -22 l-55 0 -63 79 c-35 43 -100 126 -146 183 -130 166 -120 158 -202 158
l-70 0 0 -178 0 -178 53 -10 c42 -7 52 -13 52 -29 0 -19 -8 -20 -142 -23
l-143 -3 0 25 c0 22 5 25 55 31 l55 7 0 403 0 404 -55 6 c-50 7 -55 10 -55 32
l0 25 223 -5 c132 -3 238 -9 262 -17z m1161 -110 c49 -66 98 -133 109 -148 11
-15 106 -142 210 -281 l190 -254 3 364 c1 200 0 370 -3 376 -2 8 -22 13 -48
13 -43 0 -67 13 -67 37 0 10 33 13 145 13 112 0 145 -3 145 -13 0 -24 -24 -37
-67 -37 l-43 0 0 -436 0 -435 -27 3 c-23 2 -58 44 -213 249 -377 501 -413 549
-417 549 -1 0 -3 -169 -3 -375 l0 -375 50 0 c38 0 52 -4 59 -19 6 -10 7 -21 4
-25 -3 -3 -69 -6 -145 -6 -107 0 -138 3 -138 13 0 24 24 37 67 37 l43 0 0 410
0 410 -43 0 c-43 0 -67 13 -67 37 0 10 22 13 84 13 l84 0 88 -120z"/>
<path d="M1620 1970 l0 -200 85 0 c156 0 241 31 289 103 25 38 27 49 24 119
-3 72 -5 79 -38 113 -48 49 -108 65 -247 65 l-113 0 0 -200z"/>
</g>
</svg>
